<svg xmlns="http://www.w3.org/2000/svg" xmlns:xlink="http://www.w3.org/1999/xlink" width="400" zoomAndPan="magnify" viewBox="0 0 300 209.999996" height="280" preserveAspectRatio="xMidYMid meet" version="1.0"><path stroke-linecap="butt" transform="matrix(0.770166, 0, 0, 0.770008, -6.69026, -10.410508)" fill-opacity="1" fill="#000000" fill-rule="evenodd" stroke-linejoin="miter" d="M 21.736929 253.209066 L 109.557904 273.587304 L 110.044812 277.468148 L 17.85688 262.913713 Z M 21.736929 253.209066 " stroke="#000000" stroke-width="1" stroke-opacity="1" stroke-miterlimit="4"/><path stroke-linecap="butt" transform="matrix(0.770166, 0, 0, 0.770008, -6.69026, -10.410508)" fill-opacity="1" fill="#000000" fill-rule="evenodd" stroke-linejoin="miter" d="M 9.604802 283.109323 L 153.94262 282.206329 C 219.375967 -48.314787 355.695017 312.80666 397.254652 12.60686 L 322.199798 15.320915 C 315.565675 222.639173 114.350906 -58.303522 9.609874 283.109323 Z M 9.604802 283.109323 " stroke="#000000" stroke-width="1.209" stroke-opacity="1" stroke-miterlimit="4"/><path stroke-linecap="butt" transform="matrix(0.770166, 0, 0, 0.770008, -6.69026, -10.410508)" fill-opacity="1" fill="#ffffff" fill-rule="evenodd" stroke-linejoin="miter" d="M 15.88896 275.849861 L 148.561271 275.474459 C 220.207768 -48.416247 351.840328 303.680335 392.421075 17.431283 L 325.93276 19.536577 C 317.036544 222.07607 117.673039 -47.269749 15.894032 275.854934 Z M 15.88896 275.849861 " stroke="#000000" stroke-width="1.167" stroke-opacity="1" stroke-miterlimit="4"/><path stroke-linecap="butt" transform="matrix(0.770166, 0, 0, 0.770008, -6.69026, -10.410508)" fill-opacity="1" fill="#000000" fill-rule="evenodd" stroke-linejoin="miter" d="M 21.655778 277.371761 L 139.984588 276.037562 C 207.862619 -52.26158 353.81332 291.951561 388.104837 16.406537 L 330.507667 17.451575 C 318.953744 233.419296 127.111955 -44.165074 21.650706 277.371761 Z M 21.655778 277.371761 " stroke="#000000" stroke-width="1.049" stroke-opacity="1" stroke-miterlimit="4"/><path stroke-linecap="butt" transform="matrix(0.770166, 0, 0, 0.770008, -6.69026, -10.410508)" fill="none" stroke-linejoin="miter" d="M 323.051887 30.012321 L 391.462474 29.530386 " stroke="#000000" stroke-width="8" stroke-opacity="1" stroke-miterlimit="4"/><path stroke-linecap="butt" transform="matrix(0.770166, 0, 0, 0.770008, -8.185151, 0.42427)" fill="none" stroke-linejoin="miter" d="M 323.050327 30.013826 L 391.465986 29.526818 " stroke="#000000" stroke-width="8" stroke-opacity="1" stroke-miterlimit="4"/><path stroke-linecap="butt" transform="matrix(0.770166, 0, 0, 0.770008, -10.800634, 11.259056)" fill="none" stroke-linejoin="miter" d="M 323.048113 30.015322 L 391.463772 29.528314 " stroke="#000000" stroke-width="8" stroke-opacity="1" stroke-miterlimit="4"/><path stroke-linecap="butt" transform="matrix(0.794657, 0, 0, 0.770008, -22.246627, 22.093838)" fill="none" stroke-linejoin="miter" d="M 323.05172 30.011749 L 391.462703 29.529814 " stroke="#000000" stroke-width="8" stroke-opacity="1" stroke-miterlimit="4"/><path stroke-linecap="butt" transform="matrix(0.823846, 0.0122662, -0.0131236, 0.769908, -36.846022, 28.227578)" fill="none" stroke-linejoin="miter" d="M 323.048356 30.012306 L 391.464964 29.531127 " stroke="#000000" stroke-width="8" stroke-opacity="1" stroke-miterlimit="4"/><path stroke-linecap="butt" transform="matrix(0.770166, 0, 0, 0.770008, -6.69026, -10.410508)" fill-opacity="1" fill="#000000" fill-rule="evenodd" stroke-linejoin="miter" d="M 233.770188 101.820624 L 347.311069 134.815411 L 352.64677 130.447558 L 242.985938 101.333616 Z M 233.770188 101.820624 " stroke="#000000" stroke-width="1" stroke-opacity="1" stroke-miterlimit="4"/><path stroke-linecap="butt" transform="matrix(0.770166, 0, 0, 0.770008, -6.69026, -10.410508)" fill-opacity="1" fill="#000000" fill-rule="evenodd" stroke-linejoin="miter" d="M 260.940674 102.307632 L 361.86252 124.141821 L 364.768753 118.079586 L 269.187679 101.825697 L 260.935602 102.312705 Z M 260.940674 102.307632 " stroke="#000000" stroke-width="1" stroke-opacity="1" stroke-miterlimit="4"/><path stroke-linecap="butt" transform="matrix(0.770166, 0, 0, 0.770008, -6.69026, -10.410508)" fill-opacity="1" fill="#000000" fill-rule="evenodd" stroke-linejoin="miter" d="M 283.399309 99.781278 L 371.118846 108.202457 L 375.921991 99.040621 L 297.580508 95.240944 Z M 283.399309 99.781278 " stroke="#000000" stroke-width="1" stroke-opacity="1" stroke-miterlimit="4"/><path stroke-linecap="butt" transform="matrix(0.770166, 0, 0, 0.770008, -6.69026, -10.410508)" fill-opacity="1" fill="#000000" fill-rule="evenodd" stroke-linejoin="miter" d="M 227.947578 103.520079 L 332.267637 141.364653 L 340.763169 139.670271 L 232.801443 102.789567 Z M 227.947578 103.520079 " stroke="#000000" stroke-width="1" stroke-opacity="1" stroke-miterlimit="4"/><path stroke-linecap="butt" transform="matrix(0.770166, 0, 0, 0.770008, -6.69026, -10.410508)" fill-opacity="1" fill="#000000" fill-rule="evenodd" stroke-linejoin="miter" d="M 154.439672 104.981103 L 248.083257 128.271242 L 257.060625 128.027738 L 160.992644 103.525152 Z M 154.439672 104.981103 " stroke="#000000" stroke-width="1" stroke-opacity="1" stroke-miterlimit="4"/><path stroke-linecap="butt" transform="matrix(0.770166, 0, 0, 0.770008, -6.69026, -10.410508)" fill-opacity="1" fill="#000000" fill-rule="evenodd" stroke-linejoin="miter" d="M 182.8325 101.582193 L 269.67966 129.965624 L 285.691835 134.328403 L 192.04825 100.851681 L 182.8325 101.57712 Z M 182.8325 101.582193 " stroke="#000000" stroke-width="1" stroke-opacity="1" stroke-miterlimit="4"/><path stroke-linecap="butt" transform="matrix(0.770166, 0, 0, 0.770008, -6.69026, -10.410508)" fill-opacity="1" fill="#000000" fill-rule="evenodd" stroke-linejoin="miter" d="M 207.091682 101.582193 L 301.947465 137.483808 L 320.384037 140.639214 L 211.215185 101.338689 L 207.091682 101.57712 Z M 207.091682 101.582193 " stroke="#000000" stroke-width="1" stroke-opacity="1" stroke-miterlimit="4"/><path stroke-linecap="butt" transform="matrix(0.770166, 0, 0, 0.770008, -6.69026, -10.410508)" fill-opacity="1" fill="#000000" fill-rule="evenodd" stroke-linejoin="miter" d="M 235.230912 130.939639 L 145.954284 107.162492 L 133.822158 110.561402 L 221.643133 135.307492 Z M 235.230912 130.939639 " stroke="#000000" stroke-width="1" stroke-opacity="1" stroke-miterlimit="4"/><path stroke-linecap="butt" transform="matrix(0.770166, 0, 0, 0.770008, -6.69026, -10.410508)" fill-opacity="1" fill="#000000" fill-rule="evenodd" stroke-linejoin="miter" d="M 214.359799 140.639214 L 126.051916 113.46823 L 112.951045 120.260976 L 206.112794 145.976009 Z M 214.359799 140.639214 " stroke="#000000" stroke-width="1" stroke-opacity="1" stroke-miterlimit="4"/><path stroke-linecap="butt" transform="matrix(0.770166, 0, 0, 0.770008, -6.69026, -10.410508)" fill-opacity="1" fill="#000000" fill-rule="evenodd" stroke-linejoin="miter" d="M 199.32144 152.768755 L 107.615344 126.566714 L 99.368338 130.452631 L 191.069362 158.10555 Z M 199.32144 152.768755 " stroke="#000000" stroke-width="1" stroke-opacity="1" stroke-miterlimit="4"/><path stroke-linecap="butt" transform="matrix(0.770166, 0, 0, 0.770008, -6.69026, -10.410508)" fill-opacity="1" fill="#000000" fill-rule="evenodd" stroke-linejoin="miter" d="M 188.158058 167.328263 L 87.718047 139.188336 L 82.869254 145.494074 L 185.246753 173.152066 Z M 188.158058 167.328263 " stroke="#000000" stroke-width="1" stroke-opacity="1" stroke-miterlimit="4"/><path stroke-linecap="butt" transform="matrix(0.770166, 0, 0, 0.770008, -6.69026, -10.410508)" fill-opacity="1" fill="#000000" fill-rule="evenodd" stroke-linejoin="miter" d="M 74.140412 156.167664 L 177.491727 183.825656 L 176.036075 192.074353 L 66.862151 161.991467 Z M 74.140412 156.167664 " stroke="#000000" stroke-width="1" stroke-opacity="1" stroke-miterlimit="4"/><path stroke-linecap="butt" transform="matrix(0.770166, 0, 0, 0.770008, -6.69026, -10.410508)" fill-opacity="1" fill="#000000" fill-rule="evenodd" stroke-linejoin="miter" d="M 62.495194 170.722099 L 170.213466 204.685829 L 166.820325 215.359419 L 57.646401 178.965723 L 62.500266 170.717026 Z M 62.495194 170.722099 " stroke="#000000" stroke-width="1" stroke-opacity="1" stroke-miterlimit="4"/><path stroke-linecap="butt" transform="matrix(0.770166, 0, 0, 0.770008, -6.69026, -10.410508)" fill-opacity="1" fill="#000000" fill-rule="evenodd" stroke-linejoin="miter" d="M 49.881231 191.592418 L 160.018827 227.981041 L 157.594431 238.167623 L 44.54553 198.867099 L 49.881231 191.587345 Z M 49.881231 191.592418 " stroke="#000000" stroke-width="1" stroke-opacity="1" stroke-miterlimit="4"/><path stroke-linecap="butt" transform="matrix(0.770166, 0, 0, 0.770008, -6.69026, -10.410508)" fill-opacity="1" fill="#000000" fill-rule="evenodd" stroke-linejoin="miter" d="M 38.236013 211.001713 C 77.051717 225.069139 115.867422 246.97435 154.683126 253.214139 L 153.714382 260.975828 C 105.84523 253.158336 74.789623 234.129516 35.324708 220.70636 Z M 38.236013 211.001713 " stroke="#000000" stroke-width="1" stroke-opacity="1" stroke-miterlimit="4"/><path stroke-linecap="butt" transform="matrix(0.770166, 0, 0, 0.770008, -6.69026, -10.410508)" fill-opacity="1" fill="#000000" fill-rule="evenodd" stroke-linejoin="miter" d="M 29.989007 232.338747 C 70.098061 246.248911 101.676079 268.686786 150.316169 274.069239 L 150.316169 277.950083 L 26.108958 242.530403 Z M 29.989007 232.338747 " stroke="#000000" stroke-width="1" stroke-opacity="1" stroke-miterlimit="4"/><path stroke-linecap="butt" transform="matrix(0.770166, 0, 0, 0.770008, -6.69026, -10.410508)" fill="none" stroke-linejoin="miter" d="M 27.559538 276.499205 L 136.733462 275.530262 C 139.28973 255.994142 143.098771 241.490438 146.917956 227.012098 L 47.451763 223.613189 C 39.904687 237.569009 33.884271 257.637794 27.559538 276.499205 Z M 27.559538 276.499205 " stroke="#ffffff" stroke-width="1" stroke-opacity="0.9412" stroke-miterlimit="4"/><path stroke-linecap="butt" transform="matrix(0.770166, 0, 0, 0.770008, -6.69026, -10.410508)" fill="none" stroke-linejoin="miter" d="M 51.336883 216.328362 L 148.860517 219.240263 C 153.770174 202.448636 160.804981 186.717266 168.270905 171.204034 L 82.874326 163.929353 C 65.264484 187.60504 58.995542 201.357941 51.336883 216.328362 Z M 51.336883 216.328362 " stroke="#ffffff" stroke-width="1" stroke-opacity="0.9412" stroke-miterlimit="4"/><path stroke-linecap="butt" transform="matrix(0.770166, 0, 0, 0.770008, -6.69026, -10.410508)" fill="none" stroke-linejoin="miter" d="M 51.336883 216.328362 L 148.860517 219.240263 C 153.770174 202.448636 160.804981 186.717266 168.270905 171.204034 L 82.874326 163.929353 C 65.264484 187.60504 58.995542 201.357941 51.336883 216.328362 Z M 51.336883 216.328362 " stroke="#ffffff" stroke-width="1" stroke-opacity="0.9412" stroke-miterlimit="4"/><path stroke-linecap="butt" transform="matrix(0.770166, 0, 0, 0.770008, -6.69026, -10.410508)" fill="none" stroke-linejoin="miter" d="M 85.785631 159.079566 L 170.213466 166.35932 C 181.909404 145.19984 198.646869 135.292273 210.484822 126.571787 L 147.891773 116.86714 C 128.826278 122.589483 97.32941 145.565096 85.785631 159.079566 Z M 85.785631 159.079566 " stroke="#ffffff" stroke-width="1" stroke-opacity="0.9412" stroke-miterlimit="4"/><path stroke-linecap="butt" transform="matrix(0.770166, 0, 0, 0.770008, -6.69026, -10.410508)" fill="none" stroke-linejoin="miter" d="M 156.057627 114.442246 L 214.28372 124.628828 C 235.687388 118.510791 234.957026 116.364913 265.718459 120.747984 L 220.106329 110.074394 C 201.040834 110.94695 180.702277 109.1714 156.057627 114.442246 Z M 156.057627 114.442246 " stroke="#ffffff" stroke-width="1" stroke-opacity="0.9412" stroke-miterlimit="4"/><path stroke-linecap="butt" transform="matrix(0.770166, 0, 0, 0.770008, -6.69026, -10.410508)" fill="none" stroke-linejoin="miter" d="M 237.650236 110.069321 L 289.079904 125.597771 C 321.677386 131.249092 332.247349 131.462158 351.186046 115.406116 L 303.154591 100.364673 C 289.27771 109.851182 269.588364 114.771991 237.650236 110.069321 Z M 237.650236 110.069321 " stroke="#ffffff" stroke-width="1" stroke-opacity="1" stroke-miterlimit="4"/><path stroke-linecap="butt" transform="matrix(0.770166, 0, 0, 0.770008, -6.69026, -10.410508)" fill="none" stroke-linejoin="miter" d="M 306.547732 97.457845 L 354.584258 112.012279 C 363.018927 101.962668 370.160245 87.869876 374.476483 71.255804 L 325.95812 65.432001 C 321.45422 79.032712 318.461764 85.003632 306.547732 97.457845 Z M 306.547732 97.457845 " stroke="#ffffff" stroke-width="1" stroke-opacity="0.9412" stroke-miterlimit="4"/><path stroke-linecap="butt" transform="matrix(0.770166, 0, 0, 0.770008, -6.69026, -10.410508)" fill="none" stroke-linejoin="miter" d="M 327.418844 60.582214 L 375.942279 64.950066 C 381.039598 47.098182 382.931439 33.527909 384.189285 20.794681 L 333.241454 21.281689 C 332.526307 35.602766 330.72069 48.843294 327.418844 60.582214 Z M 327.418844 60.582214 " stroke="#ffffff" stroke-width="1" stroke-opacity="1" stroke-miterlimit="4"/></svg>